<svg xmlns="http://www.w3.org/2000/svg" viewBox="0 0 392 220" version="1.1" width="392" height="220">
	<path d="M 0 110.0024998089309 L 0 220.0049996178618 196.25 219.7524998089309 L 392.5 219.5 392.7544042256343 109.75 L 393.00880845126864 -1.387778801172909e-17 196.50440422563432 -6.938894005864545e-18 L 0 0 0 110.0024998089309 M 0.4826415978552815 110.5 C 0.48268303932233203 171, 0.6029317928363263 195.60294003479385, 0.749861050108602 165.17320007731968 C 0.896790307380878 134.74346011984548, 0.8967564007260185 85.2434601198455, 0.749785701986692 55.17320007731967 C 0.6028150032473658 25.102940034793846, 0.482600156388231 50, 0.4826415978552815 110.5 M 172.5 26 C 172.16008130618755 26.55, 171.34602365871885 26.993109251467324, 170.69098300562507 26.984687225482936 C 169.9753674337122 26.975486372203047, 170.0987080816439 26.582459572344277, 171 26 C 172.92112324648238 24.75847480513558, 173.26730476831554 24.75847480513558, 172.5 26 M 206 30 C 206 30.55, 206.50625 30.8875, 207.125 30.75 C 207.74375 30.6125, 208.444223668715 31.026421006145043, 208.68160815270005 31.66982445810009 C 209.2034430695864 33.08419822524379, 206.11720797582717 32.785157370165514, 205.170032019224 31.329570168415362 C 204.8015144086508 30.763245069229335, 203.825 30.04293964745834, 203 29.72889145336871 C 201.99770548514795 29.347353535386613, 202.24655822772192 29.131699711308002, 203.75 29.078947368421055 C 204.9875 29.035526315789475, 206 29.45, 206 30 M 236.6855487786324 34.17431402670948 C 239.46985467957035 36.79003360600662, 239.6848384023549 39, 237.15498756211207 39 C 234.70773743627998 39, 231.60426780908236 35.4736448497707, 232.3473340779194 33.53724519295223 C 233.13738059604046 31.478416968984426, 233.94161131071624 31.596518621119362, 236.6855487786324 34.17431402670948 M 214.12755528455784 34.75 C 215.39707084778806 36.36875535725104, 215.3500061225726 36.38997706548042, 213.5 35.03296765965872 C 212.4 34.226099872471025, 211.3125 33.43859987247102, 211.08333333333331 33.28296765965872 C 210.85416666666666 33.12733544684642, 211.13656654471768 33, 211.71088861789116 33 C 212.28521069106463 33, 213.37271069106464 33.7875, 214.12755528455784 34.75 M 204.93470609508586 35.42132565757132 C 205.9026079999797 36.58757610626331, 205.74511939325586 36.746107993839395, 204.05715081052801 36.30469429361034 C 201.7879870680715 35.711294644924536, 201.34739288940543 36.94739288940543, 203.17620639568256 38.77620639568255 C 204.03512786195387 39.635127861953855, 204.70950977863083 39.65604861453327, 205.67620639568256 38.85376168024038 C 206.58929188855066 38.09596802719684, 207 38.08503993994655, 207 38.818538290182886 C 207 41.77073131701715, 202.46169730288867 41.030039891595976, 201.4735195376936 37.91656745121847 C 200.37640459919746 34.459864370816874, 202.72911253794564 32.763748001570114, 204.93470609508586 35.42132565757132 M 210.6929907206851 45.730968110629675 C 210.43944730983102 46.703935649783354, 210.21532840902606 46.15, 210.19494871889628 44.5 C 210.17456902876648 42.85, 210.38201363764708 42.053935649783355, 210.65593673863094 42.730968110629675 C 210.9298598396148 43.40800057147599, 210.94653413153918 44.75800057147599, 210.6929907206851 45.730968110629675 M 205 44 C 205 44.55, 204.8015576474687 45, 204.55901699437493 45 C 204.31647634128117 45, 203.83991869381245 44.55, 203.5 44 C 203.16008130618755 43.45, 203.35852365871884 43, 203.94098300562507 43 C 204.52344235253128 43, 205 43.45, 205 44 M 211 60.57036751697599 C 211 60.84536751697599, 210.1 60.5887021343368, 209 60 C 207.9 59.4112978656632, 207 58.70463248302401, 207 58.42963248302401 C 207 58.15463248302401, 207.9 58.4112978656632, 209 59 C 210.1 59.5887021343368, 211 60.29536751697599, 211 60.57036751697599 M 223 67.57036751697599 C 223 67.845367516976, 222.1 67.5887021343368, 221 67 C 219.9 66.4112978656632, 219 65.70463248302401, 219 65.42963248302401 C 219 65.154632483024, 219.9 65.4112978656632, 221 66 C 222.1 66.5887021343368, 223 67.29536751697599, 223 67.57036751697599 M 132.5 72 C 132.16008130618755 72.55, 131.34602365871885 72.99310925146732, 130.69098300562507 72.98468722548293 C 129.9753674337122 72.97548637220305, 130.0987080816439 72.58245957234428, 131 72 C 132.92112324648235 70.75847480513559, 133.26730476831554 70.75847480513559, 132.5 72 M 135 73.5 C 135 74.325, 134.56412315835243 75, 134.03138479633873 75 C 133.498646434325 75, 133.32179139620794 74.325, 133.63837360052304 73.5 C 133.95495580483814 72.675, 134.3908326464857 72, 134.6069888041843 72 C 134.82314496188295 72, 135 72.675, 135 73.5 M 226.12755528455784 74.75 C 227.37142594744824 76.33605562436583, 227.33605562436583 76.37142594744823, 225.75 75.12755528455783 C 224.08425197980733 73.82118553165974, 223.55452109501945 73, 224.37755528455784 73 C 224.58521069106465 73, 225.37271069106464 73.7875, 226.12755528455784 74.75 M 254.0496599268842 77.5256801462316 C 255.6723469670979 78.36480422665898, 257 79.5163618741277, 257 80.08469714060655 C 257 80.65303240708539, 257.3424627991968 80.90638033896383, 257.7610284426596 80.64769254478084 C 258.17959408612245 80.38900475059785, 259.39060242191965 80.81244710312913, 260.4521580777645 81.5886755504059 C 262.33574148569784 82.96598536549297, 262.33087276427693 83, 260.25014662947984 83 C 259.07748467707836 83, 257.8399186938125 82.55, 257.5 82 C 257.1600813061875 81.45, 255.8960236587188 80.94779939228614, 254.69098300562504 80.88399864952478 C 252.73053983851673 80.78020320504591, 252.70421960385767 80.71600959846285, 254.44084321541314 80.27392144118548 C 256.059524117865 79.86185767985954, 255.83488645740746 79.54993344997594, 253.08753011302798 78.394756806043 C 251.2757441382389 77.63295797853986, 249.32033586756862 77.30202154602692, 248.74217840042735 77.65934251156978 C 248.12775932989837 78.03907438049279, 247.98745599534791 77.82931362025705, 248.40450849718746 77.15450849718748 C 249.35187463102272 75.62163789285144, 250.5156148661794 75.69815441991389, 254.0496599268842 77.5256801462316 M 250.6934681330198 88 C 250.6519823775625 90.75, 250.2539806022187 93, 249.8090197433669 93 C 249.3640588845151 93, 249 90.75, 249 88 C 249 85.25, 249.3980017753438 83, 249.8844483896529 83 C 250.370895003962 83, 250.7349538884771 85.25, 250.6934681330198 88 M 226.49292079320128 84.9885456027863 C 226.84325959151693 85.55540568603882, 226.44186292708278 85.72305311659034, 225.55193778757624 85.38155679860196 C 223.81952054835307 84.71676592783017, 223.50255090107498 84, 224.94098300562507 84 C 225.45852365871883 84, 226.15689566312815 84.44484552125384, 226.49292079320128 84.9885456027863 M 258.2932770935639 94.98650862951898 C 257.3235146773701 98.69488580584144, 256.4812367888239 97.05095831743147, 256.8912075213293 92.25 C 257.25008654950295 88.04735059443672, 257.3845751200897 87.81533255264178, 258.0583218293801 90.23650862951898 C 258.4771441264984 91.74158837575442, 258.58287399538114 93.87908837575442, 258.2932770935639 94.98650862951898 M 205 91 C 205.825 91.53315594803124, 206.05 91.96937445096587, 205.5 91.96937445096587 C 204.95 91.96937445096587, 203.825 91.53315594803124, 203 91 C 202.175 90.46684405196876, 201.95 90.03062554903413, 202.5 90.03062554903413 C 203.05 90.03062554903413, 204.175 90.46684405196876, 205 91 M 237.5 110.2125662705368 C 238.05 110.82169375268818, 236.925 110.40788234834726, 235 109.29298537200144 C 233.075 108.17808839565562, 229.025 105.9316313764588, 226 104.30085866267515 C 217.884280594863 99.92568717222166, 215.5564411509227 98.56891098363418, 215 97.8895324377016 C 214.725 97.55377527843748, 213.0660354837565 96.54447548477529, 211.31341218612556 95.64664400734117 C 209.5607888884946 94.74881252990706, 207.84919116699035 93.56500317676165, 207.50986169389387 93.01595655590694 C 206.7725938116633 91.82303206364425, 236.05799514289967 108.61553938352667, 237.5 110.2125662705368 M 226.49292079320128 94.9885456027863 C 226.84325959151693 95.55540568603882, 226.44186292708278 95.72305311659034, 225.55193778757624 95.38155679860196 C 223.81952054835307 94.71676592783017, 223.50255090107498 94, 224.94098300562507 94 C 225.45852365871883 94, 226.15689566312815 94.44484552125384, 226.49292079320128 94.9885456027863 M 283 118.39301119581566 C 283 118.60916735351428, 282.3016279955907 119.05401287476812, 281.4480622124238 119.38155679860196 C 280.5581370729172 119.72305311659034, 280.1567404084831 119.55540568603882, 280.5070792067987 118.9885456027863 C 281.09433714845005 118.03834229303116, 283 117.58309806735065, 283 118.39301119581566 M 231.78921184772418 125.61281039557973 C 229.59665356683948 126.78623197704758, 226 126.36392385526028, 226 124.93305874961024 C 226 123.1968431926413, 229.23632320704448 122.29969669937952, 231.55394689823152 123.39343997090955 L 233.8826742376798 124.49242332547001 231.78921184772418 125.61281039557973 M 283 125.151815122449 C 283 125.659279941002, 282.10492296700033 125.59133682631894, 281 125 C 279.9 124.4112978656632, 279 123.76259400114307, 279 123.55843585662194 C 279 123.35427771210081, 279.9 123.42259451720285, 281 123.71025097907093 C 282.1 123.997907440939, 283 124.64661130545913, 283 125.151815122449 M 252 133.44098300562507 C 252 133.68352365871883, 251.55 134.16008130618755, 251 134.5 C 250.45 134.83991869381245, 250 134.64147634128116, 250 134.05901699437493 C 250 133.47655764746872, 250.45 133, 251 133 C 251.55 133, 252 133.1984423525313, 252 133.44098300562507 M 248.45472729178067 135.12139395844736 C 248.70306740571118 135.36973407237784, 247.11019681076138 135.59367143892948, 244.9150148585589 135.61903255078437 C 242.71983290635643 135.64439366263923, 241.4671602828592 135.3293130557489, 242.13129791745388 134.91885342436143 C 243.3581125980017 134.16064025388556, 247.63082944517112 134.29749611183775, 248.45472729178067 135.12139395844736 M 256.4381684983471 141.75 C 255.95721138084352 143.95462357217463, 256.0655835536919 144.2025219484589, 256.9846231306483 143 C 257.91166254656946 141.7870106220848, 258.0023332837768 141.95440398605163, 257.45849446273724 143.8748458301869 C 257.0237394552591 145.4100832498186, 257.26573679146276 146.5502209224024, 258.1429878022211 147.0997434890659 C 259.788589253694 148.13057174942531, 257.4993823451514 153.02232622720783, 255 153.8159230522837 C 253.82541583262653 154.18887370059898, 253.8812956538756 153.8619528981141, 255.25757730100926 152.30898591351797 C 257.5901113904558 149.67700397951515, 256.62557101541347 144.33332386846425, 253.64734188987984 143.38807066392593 L 251.5328467068663 142.71695596338512 253.76642335343314 141.8907021857474 C 254.99489050904492 141.43626260804666, 256 140.599947516285, 256 140.03222420405484 C 256 139.46450089182468, 256.2335734126967 139, 256.5190520282149 139 C 256.8045306437331 139, 256.7681330552926 140.2375, 256.4381684983471 141.75" stroke="none" fill="#000000" fill-rule="evenodd" data-fill-layer-id="trace-color"/>
</svg>